<svg id="Layer_1" data-name="Layer 1" xmlns="http://www.w3.org/2000/svg" viewBox="0 0 37 29"><defs><style>.cls-1{fill:#00305c;}.cls-2{fill:#fff;}.cls-3{fill:#2196f3;}</style></defs><path class="cls-1" d="M21.84,24.8l.65.62a3.24,3.24,0,0,1-3,2.08H5.1a3.24,3.24,0,0,1-3-4.39l7.18-19a3.24,3.24,0,0,1,6.06,0l3,7.78a14.56,14.56,0,0,0-.27,4.6A14.07,14.07,0,0,0,21.84,24.8Z"/><path class="cls-1" d="M19.12,16.39a13.58,13.58,0,0,1,0-2.3l3.41,9a3.38,3.38,0,0,1,.21,1A12.84,12.84,0,0,1,19.12,16.39Z"/><path class="cls-2" d="M15.84,16.86h0A4.17,4.17,0,0,0,16,13.12a3.7,3.7,0,0,0-2-2,4.07,4.07,0,0,0-5.19,5.7h0l0,0a.75.75,0,0,1,.07.12l3.45,5.83L15.75,17a.75.75,0,0,1,.07-.12Z"/><circle class="cls-1" cx="12.27" cy="14.29" r="1.25"/><path class="cls-3" d="M35.2,4.28V24.84a2.53,2.53,0,0,1-2.52,2.51H29.92a10.71,10.71,0,0,1-7.22-3.27,12.84,12.84,0,0,1-3.58-7.69,13.58,13.58,0,0,1,0-2.3,14,14,0,0,1,3.17-7.88,10.91,10.91,0,0,1,7.59-4H33.1A2.1,2.1,0,0,1,35.2,4.28Z"/><path class="cls-2" d="M35.5,17.84V15.45H30.94V13.07H31A1.1,1.1,0,0,0,32.13,12,1.12,1.12,0,0,0,31,10.84H25.81a1.11,1.11,0,0,0-.15,2.22v7.52a1.11,1.11,0,0,0,.14,2.22H31a1.12,1.12,0,0,0,0-2.23h-.07V17.84Z"/></svg>