<?xml version="1.0" encoding="UTF-8"?>
<svg id="Layer_1" data-name="Layer 1" xmlns="http://www.w3.org/2000/svg" viewBox="0 0 212 163">
  <defs>
    <style>
      .cls-1 {
        fill: #fff;
      }

      .cls-2 {
        fill: #2196f3;
      }

      .cls-3 {
        fill: #00305c;
      }

      .cls-4 {
        fill: #074da3;
      }
    </style>
  </defs>
  <g>
    <path class="cls-4" d="M125.09,139.07c1.24,1.27,2.51,2.49,3.81,3.66-2.7,7.01-9.46,12.27-17.85,12.27H26.46c-13.36,0-22.59-13.36-17.87-25.86L50.89,17.31c6.23-16.46,29.51-16.46,35.73,0l17.34,45.86c-1.94,8.92-2.51,18.11-1.56,27.1,1.93,18.42,9.99,35.75,22.68,48.8Z"/>
    <path class="cls-3" d="M109.03,89.56c-.47-4.48-.53-9.02-.21-13.55l20.09,53.13c.71,1.89,1.11,3.8,1.22,5.68-11.42-11.55-19.23-27.42-21.1-45.26Z"/>
    <path class="cls-1" d="M89.72,92.31h0c3.44-6.17,4.24-14.01.8-22.02-2.27-5.28-6.59-9.41-11.93-11.54-17.21-6.87-33.59,5.62-33.59,21.94,0,4.22,1.1,8.18,3.02,11.62h0l.14.24c.13.23.27.46.41.69l20.3,34.35,20.3-34.35c.14-.23.27-.46.41-.69l.14-.24Z"/>
    <circle class="cls-4" cx="68.7" cy="77.16" r="7.37"/>
  </g>
  <path class="cls-2" d="M203.75,18.21v121.09c0,8.19-6.66,14.84-14.84,14.84h-16.25c-16.22-.62-31.16-7.83-42.52-19.32-11.42-11.55-19.23-27.42-21.1-45.26-.47-4.48-.53-9.02-.21-13.55,1.21-16.88,7.81-33.56,18.69-46.47,11.91-14.13,27.78-22.52,44.71-23.64.3-.02.62-.03.99-.03h18.22c6.8,0,12.34,5.53,12.34,12.34Z"/>
  <path class="cls-1" d="M205.55,98.1v-14.07s-26.89,0-26.89,0l.02-14.02h.43c3.63,0,6.58-2.93,6.59-6.56,0-3.63-2.94-6.58-6.56-6.58l-30.67-.05c-3.63,0-6.58,2.93-6.58,6.56,0,3.33,2.47,6.06,5.69,6.5l-.07,44.32c-3.21.43-5.7,3.15-5.71,6.48,0,3.63,2.93,6.58,6.56,6.59l30.66.05c3.63,0,6.58-2.93,6.59-6.56,0-3.63-2.93-6.58-6.56-6.58h-.43s.03-16.06.03-16.06h26.92Z"/>
</svg>