<?xml version="1.0" encoding="UTF-8"?>
<svg id="Layer_1" data-name="Layer 1" xmlns="http://www.w3.org/2000/svg" viewBox="0 0 878 191">
  <defs>
    <style>
      .cls-1 {
        font-family: Jost-Medium, AEKZVD+Jost-Medium;
        font-size: 157.14px;
        font-weight: 500;
      }

      .cls-1, .cls-2 {
        fill: #fff;
      }

      .cls-3 {
        fill: #2196f3;
      }

      .cls-4 {
        fill: #00305c;
      }

      .cls-5 {
        fill: #074da3;
      }
    </style>
  </defs>
  <text class="cls-1" transform="translate(201.13 149.64)"><tspan x="0" y="0">ASTA GO</tspan></text>
  <g>
    <path class="cls-5" d="M103.03,138.19c.94.96,1.89,1.88,2.88,2.77-2.04,5.3-7.15,9.28-13.5,9.28H28.46c-10.1,0-17.08-10.11-13.51-19.55l31.98-84.56c4.71-12.44,22.31-12.44,27.02,0l13.11,34.67c-1.47,6.74-1.89,13.69-1.18,20.49,1.46,13.92,7.55,27.03,17.15,36.9Z"/>
    <path class="cls-4" d="M90.89,100.76c-.36-3.39-.4-6.82-.16-10.25l15.19,40.17c.54,1.43.84,2.87.92,4.3-8.64-8.73-14.54-20.73-15.96-34.22Z"/>
    <path class="cls-2" d="M76.29,102.84h0c2.6-4.66,3.21-10.6.61-16.65-1.72-3.99-4.98-7.11-9.02-8.72-13.02-5.19-25.4,4.25-25.4,16.59,0,3.19.83,6.18,2.28,8.78h0l.11.18c.1.18.2.35.31.52l15.35,25.97,15.35-25.97c.11-.17.21-.35.31-.52l.11-.18Z"/>
    <circle class="cls-5" cx="60.4" cy="91.38" r="5.57"/>
  </g>
  <path class="cls-3" d="M162.51,46.81v91.56c0,6.19-5.04,11.22-11.22,11.22h-12.29c-12.27-.47-23.56-5.92-32.15-14.6-8.64-8.73-14.54-20.73-15.96-34.22-.36-3.39-.4-6.82-.16-10.25.92-12.76,5.9-25.37,14.13-35.14,9-10.68,21.01-17.03,33.8-17.87.23-.01.47-.02.75-.02h13.77c5.14,0,9.33,4.18,9.33,9.33Z"/>
  <path class="cls-2" d="M163.87,107.21v-10.64s-20.34,0-20.34,0l.02-10.6h.32c2.75,0,4.98-2.22,4.98-4.96,0-2.74-2.22-4.97-4.96-4.98l-23.19-.04c-2.75,0-4.97,2.22-4.98,4.96,0,2.52,1.87,4.58,4.3,4.91l-.05,33.51c-2.43.32-4.31,2.38-4.32,4.9,0,2.75,2.22,4.97,4.96,4.98l23.18.04c2.75,0,4.98-2.22,4.98-4.96,0-2.74-2.22-4.97-4.96-4.98h-.32s.02-12.14.02-12.14h20.35Z"/>
</svg>